# xmcd
#
# Track frame offsets:
#	225
#	17677
#	36147
#	55407
#	72910
#	90827
#	107125
#	124305
#	141717
#	165322
#	177997
#	195695
#	213922
#	237877
#	258030
#	273295
#
# Disc length: 3855
#
# Revision: 1
# Processed by: cddbd v1.5.1PL0 Copyright (c) Steve Scherf et al.
# Submitted via: ExactAudioCopy v0.95a5
# Normalized: r0:TDELIM( - )
#
DISCID=df0f0c10
DTITLE=Various Artist - Blues and Ballads vol.10
DYEAR=1900
DGENRE=
TTITLE0=Blessid Union of Soul - I Believe
TTITLE1=Stevie B. - Dream About You
TTITLE2=Celine Dion - Pour Que Tu M'aimes Encore
TTITLE3=Wet Wet  Wet - Somewhere Somehow
TTITLE4=Seal - Kiss From A Rose
TTITLE5=La Bouche - Fallin' In Love
TTITLE6=East 17 - Hold My Body Tight
TTITLE7=The Kelly Family - Roses Of Red
TTITLE8=Kirsty Mac Coll and Evan Dando - Perfect Day
TTITLE9=Rod Stewart - Windy Town
TTITLE10=Chris Isaac - Somebody's Crying
TTITLE11=Paula Abdul - If I Were Your Girl
TTITLE12=Fish feat. Sam Brown - Just Good Friends
TTITLE13=Annie Lennox - A Whiter Shade Of Pale
TTITLE14=Mica Paris - One
TTITLE15=Robson and Jerome - Unchained Melody
EXTD=
EXTT0=
EXTT1=
EXTT2=
EXTT3=
EXTT4=
EXTT5=
EXTT6=
EXTT7=
EXTT8=
EXTT9=
EXTT10=
EXTT11=
EXTT12=
EXTT13=
EXTT14=
EXTT15=
PLAYORDER=
